<svg width="25" height="27" viewBox="0 0 25 27" fill="none" xmlns="http://www.w3.org/2000/svg">
<g clip-path="url(#clip0_8_772)">
<path d="M25 13.25C25 5.93145 19.4043 0 12.5 0C5.5957 0 0 5.93145 0 13.25C0 20.5686 5.5957 26.5 12.5 26.5C12.5732 26.5 12.6465 26.5 12.7197 26.4948V16.1847H10.0342V12.867H12.7197V10.424C12.7197 7.59287 14.3506 6.05049 16.7334 6.05049C17.876 6.05049 18.8574 6.13848 19.1406 6.17988V9.14043H17.5C16.2061 9.14043 15.9521 9.79258 15.9521 10.7501V12.8618H19.0527L18.6475 16.1795H15.9521V25.9876C21.1768 24.3986 25 19.3005 25 13.25Z" fill="black"/>
</g>
<defs>
<clipPath id="clip0_8_772">
<rect width="25" height="26.5" fill="white"/>
</clipPath>
</defs>
</svg>
