<svg width="25" height="28" viewBox="0 0 25 28" fill="none" xmlns="http://www.w3.org/2000/svg">
<g clip-path="url(#clip0_8_780)">
<path d="M14.8926 14.0298C14.8926 15.4305 13.8214 16.5659 12.5 16.5659C11.1786 16.5659 10.1074 15.4305 10.1074 14.0298C10.1074 12.6291 11.1786 11.4937 12.5 11.4937C13.8214 11.4937 14.8926 12.6291 14.8926 14.0298Z" fill="black"/>
<path d="M18.0954 9.54274C17.9804 9.21238 17.7969 8.91336 17.5585 8.66792C17.327 8.41519 17.0451 8.2207 16.7332 8.09878C16.4803 7.99466 16.1003 7.87072 15.4005 7.83696C14.6435 7.80037 14.4165 7.79248 12.5 7.79248C10.5833 7.79248 10.3564 7.80016 9.59953 7.83676C8.89972 7.87072 8.51958 7.99466 8.26686 8.09878C7.95501 8.2207 7.67291 8.41519 7.44155 8.66792C7.20313 8.91336 7.01965 9.21218 6.90444 9.54274C6.80621 9.81083 6.68929 10.2138 6.65744 10.9556C6.62292 11.7578 6.61548 11.9984 6.61548 14.0301C6.61548 16.0616 6.62292 16.3022 6.65744 17.1046C6.68929 17.8464 6.80621 18.2492 6.90444 18.5173C7.01965 18.8478 7.20294 19.1466 7.44136 19.3921C7.67291 19.6448 7.95482 19.8393 8.26667 19.9612C8.51958 20.0656 8.89972 20.1895 9.59953 20.2233C10.3564 20.2598 10.5831 20.2675 12.4998 20.2675C14.4167 20.2675 14.6437 20.2598 15.4003 20.2233C16.1002 20.1895 16.4803 20.0656 16.7332 19.9612C17.3592 19.7053 17.854 19.1808 18.0954 18.5173C18.1937 18.2492 18.3106 17.8464 18.3426 17.1046C18.3771 16.3022 18.3844 16.0616 18.3844 14.0301C18.3844 11.9984 18.3771 11.7578 18.3426 10.9556C18.3108 10.2138 18.1938 9.81083 18.0954 9.54274ZM12.5 17.9368C10.4643 17.9368 8.81408 16.1878 8.81408 14.0299C8.81408 11.872 10.4643 10.123 12.5 10.123C14.5356 10.123 16.1858 11.872 16.1858 14.0299C16.1858 16.1878 14.5356 17.9368 12.5 17.9368ZM16.3315 10.8816C15.8558 10.8816 15.4702 10.4728 15.4702 9.96853C15.4702 9.4643 15.8558 9.05549 16.3315 9.05549C16.8072 9.05549 17.1929 9.4643 17.1929 9.96853C17.1927 10.4728 16.8072 10.8816 16.3315 10.8816Z" fill="black"/>
<path d="M12.5 0.779785C5.5975 0.779785 0 6.71313 0 14.0298C0 21.3464 5.5975 27.2798 12.5 27.2798C19.4025 27.2798 25 21.3464 25 14.0298C25 6.71313 19.4025 0.779785 12.5 0.779785ZM19.6344 17.1666C19.5997 17.9765 19.4782 18.5295 19.3008 19.0135C18.928 20.0355 18.1658 20.8434 17.2016 21.2387C16.7452 21.4267 16.2233 21.5553 15.4594 21.5923C14.694 21.6293 14.4495 21.6382 12.5002 21.6382C10.5507 21.6382 10.3064 21.6293 9.54075 21.5923C8.77686 21.5553 8.255 21.4267 7.79858 21.2387C7.31945 21.0476 6.88572 20.7482 6.52714 20.361C6.16207 19.9811 5.87959 19.5212 5.69935 19.0135C5.52197 18.5297 5.40047 17.9765 5.36575 17.1668C5.33047 16.3552 5.32227 16.0961 5.32227 14.0298C5.32227 11.9635 5.33047 11.7043 5.36556 10.893C5.40028 10.083 5.52158 9.53009 5.69897 9.04607C5.87921 8.5384 6.16188 8.07845 6.52714 7.69855C6.88553 7.31138 7.31945 7.01195 7.79839 6.82089C8.255 6.63287 8.77666 6.50428 9.54075 6.46728C10.3062 6.43028 10.5507 6.42139 12.5 6.42139C14.4493 6.42139 14.6938 6.43028 15.4593 6.46748C16.2233 6.50428 16.745 6.63287 17.2016 6.82069C17.6805 7.01175 18.1145 7.31138 18.4731 7.69855C18.8381 8.07865 19.1208 8.5384 19.3008 9.04607C19.4784 9.53009 19.5997 10.083 19.6346 10.893C19.6695 11.7043 19.6777 11.9635 19.6777 14.0298C19.6777 16.0961 19.6695 16.3552 19.6344 17.1666Z" fill="black"/>
</g>
<defs>
<clipPath id="clip0_8_780">
<rect width="25" height="26.5" fill="white" transform="translate(0 0.779785)"/>
</clipPath>
</defs>
</svg>
