<svg width="25" height="28" viewBox="0 0 25 28" fill="none" xmlns="http://www.w3.org/2000/svg">
<g clip-path="url(#clip0_8_778)">
<path d="M12.5 0.720215C5.5975 0.720215 0 6.65356 0 13.9702C0 21.2869 5.5975 27.2202 12.5 27.2202C19.4025 27.2202 25 21.2869 25 13.9702C25 6.65356 19.4025 0.720215 12.5 0.720215ZM8.86765 20.7505H5.82333V11.0421H8.86765V20.7505ZM7.34558 9.71637H7.32574C6.30417 9.71637 5.64346 8.97094 5.64346 8.0393C5.64346 7.08663 6.32439 6.36182 7.3658 6.36182C8.40721 6.36182 9.04808 7.08663 9.06792 8.0393C9.06792 8.97094 8.40721 9.71637 7.34558 9.71637ZM19.8448 20.7505H16.8009V15.5567C16.8009 14.2514 16.3601 13.3613 15.2586 13.3613C14.4176 13.3613 13.9168 13.9617 13.6967 14.5414C13.6162 14.7488 13.5965 15.0387 13.5965 15.3289V20.7505H10.5524C10.5524 20.7505 10.5923 11.9529 10.5524 11.0421H13.5965V12.4167C14.0011 11.7551 14.7249 10.8142 16.3401 10.8142C18.343 10.8142 19.8448 12.2018 19.8448 15.1837V20.7505Z" fill="black"/>
</g>
<defs>
<clipPath id="clip0_8_778">
<rect width="25" height="26.5" fill="white" transform="translate(0 0.720215)"/>
</clipPath>
</defs>
</svg>
